<svg id="logo" role="img" aria-labelledby="Konntrol-logo" x="0px" y="0px" viewBox="0 0 282.8 84.2">
<title id="Konntrol-logo-svg">Konntrol Logo</title>
 <defs>
  <style type="text/css">
   <![CDATA[
    .str1 {stroke:white;stroke-width:1.99961}
    .str0 {stroke:black;stroke-width:2.08346}
    .fil5 {fill:none;fill-rule:nonzero}
    .fil0 {fill:black}
    .fil2 {fill:lime}
    .fil1 {fill:red}
    .fil3 {fill:yellow}
    .fil4 {fill:black;fill-rule:nonzero}
    .fil6 {fill:white;fill-rule:nonzero}
   ]]>
  </style>
 </defs>
 <g id="Layer_x0020_1">
  <metadata id="CorelCorpID_0Corel-Layer"/>
  <rect class="fil0 str0" y="12" width="282" height="64.9996" rx="15" ry="15"/>
  <rect class="fil1 str0" x="85" y="25" width="16.9996" height="36"/>
  <rect class="fil2 str0" x="118" y="25" width="18.4996" height="36"/>
  <rect class="fil3 str0" x="105" y="25" width="9" height="36"/>
  <polygon class="fil4" points="140,59 140,27 134,27 120,48 120,27 114,27 114,59 120,59 134,38 134,59 "/>
  <polygon id="1" class="fil4" points="106,59 106,27 100,27 86,48 86,27 80,27 80,59 87,59 100,38 100,59 "/>
  <polygon id="2" class="fil5 str1" points="140,59 140,27 134,27 120,48 120,27 114,27 114,59 120,59 134,38 134,59 "/>
  <polygon id="3" class="fil5 str1" points="106,59 106,27 100,27 86,48 86,27 80,27 80,59 87,59 100,38 100,59 "/>
  <polygon class="fil6" points="10,61 10,27 17,27 17,42 30,27 40,27 27,40 40,61 31,61 22,45 17,50 17,61 "/>
  <path id="1" class="fil6" d="M42 44c0,-4 1,-7 2,-9 1,-2 2,-3 3,-5 1,-1 3,-2 5,-3 2,-1 4,-1 7,-1 5,0 9,2 12,5 3,3 4,7 4,13 0,5 -1,9 -4,13 -3,3 -7,4 -12,4 -5,0 -9,-1 -12,-4 -3,-4 -5,-8 -5,-13zm7 0c0,3 1,6 3,8 2,2 4,3 7,3 3,0 5,-1 7,-3 1,-2 2,-5 2,-9 0,-3 -1,-6 -2,-8 -2,-2 -4,-3 -7,-3 -3,0 -5,1 -7,3 -2,2 -3,5 -3,9z"/>
  <polygon class="fil6" points="156,61 156,32 146,32 146,27 173,27 173,32 163,32 163,61 "/>
  <path id="1" class="fil6" d="M177 61l0 -34 15 0c3,0 6,0 7,0 2,1 3,2 4,4 1,1 2,3 2,5 0,3 -1,5 -2,6 -2,2 -4,3 -7,4 1,0 3,1 4,2 1,1 2,3 4,6l4 7 -9 0 -4 -8c-2,-3 -3,-4 -4,-5 -1,-1 -1,-1 -2,-1 -1,-1 -2,-1 -4,-1l-1 0 0 15 -7 0zm7 -20l5 0c3,0 5,0 6,0 1,-1 2,-1 2,-2 1,-1 1,-1 1,-2 0,-2 0,-3 -1,-3 -1,-1 -2,-1 -3,-2 0,0 -2,0 -5,0l-5 0 0 9z"/>
  <path id="2" class="fil6" d="M210 44c0,-4 0,-7 1,-9 1,-2 2,-3 4,-5 1,-1 2,-2 4,-3 2,-1 5,-1 7,-1 5,0 9,2 12,5 3,3 5,7 5,13 0,5 -2,9 -5,12 -3,4 -7,5 -12,5 -5,0 -9,-1 -12,-5 -3,-3 -4,-7 -4,-12zm7 0c0,3 1,6 3,8 1,2 4,3 6,3 3,0 5,-1 7,-3 2,-2 3,-5 3,-9 0,-3 -1,-6 -3,-8 -1,-2 -4,-3 -7,-3 -2,0 -5,1 -6,3 -2,2 -3,5 -3,9z"/>
  <polygon id="3" class="fil6" points="248,61 248,27 255,27 255,55 272,55 272,61 "/>
 </g>
</svg>
