<?xml version="1.0" encoding="utf-8"?>
<!-- Generator: Adobe Illustrator 21.0.2, SVG Export Plug-In . SVG Version: 6.00 Build 0)  -->
<svg version="1.1" id="Layer_1" xmlns="http://www.w3.org/2000/svg" xmlns:xlink="http://www.w3.org/1999/xlink" x="0px" y="0px"
	 viewBox="0 0 712 712" style="enable-background:new 0 0 712 712;" xml:space="preserve">
<style type="text/css">
	.st0{fill:#FF0000;}
	.st1{fill:#FFFF00;}
	.st2{fill:#0DFF00;}
	.st3{fill:#FFFFFF;}
</style>
<path d="M553.3,650.5h-397c-51.8,0-94.3-42.4-94.3-94.3v-397c0-51.8,42.4-94.3,94.3-94.3h397c51.8,0,94.3,42.4,94.3,94.3v397
	C647.5,608.1,605.1,650.5,553.3,650.5z"/>
<g>
	<path class="st0" d="M263.2,204.1V504h-87V204.1H263.2z"/>
	<path class="st1" d="M402.5,204.1V504h-87V204.1H402.5z"/>
	<path class="st2" d="M541.8,204.1V504h-87V204.1H541.8z"/>
</g>
<g>
	<path class="st3" d="M229.5,545.3l-14.2,17.9l20.9,38.8h-18.3l-13.3-24.8l-2.4,2.7V602h-16.4v-56.7h16.4v25.2l19.5-25.2H229.5z"/>
	<path class="st3" d="M263.6,544.4c16.5,0,24.7,9.8,24.7,29.3c0,19.5-8.4,29.3-25.2,29.3c-16.8,0-25.2-10-25.2-30
		C238,553.9,246.5,544.4,263.6,544.4z M263.2,548.9c-3.1,0-5.2,1.7-6.3,5.1c-1.1,3.4-1.6,10-1.6,19.7c0,9.7,0.5,16.2,1.6,19.7
		c1.1,3.4,3.2,5.1,6.3,5.1c3.1,0,5.2-1.7,6.3-5.1c1.1-3.4,1.6-10,1.6-19.7c0-9.7-0.5-16.2-1.6-19.6
		C268.4,550.6,266.3,548.9,263.2,548.9z"/>
	<path class="st3" d="M337.1,545.3V602h-12.6l-23.7-35.9V602h-5.5v-56.7h10.4l25.8,38.7v-38.7H337.1z"/>
	<path class="st3" d="M386.3,545.3v5.7h-13.9v51h-17.4v-51h-14v-5.7H386.3z"/>
	<path class="st3" d="M390.6,602v-56.7h24.4c6.3,0,11.4,1.3,15.2,4c3.8,2.7,5.7,6.2,5.7,10.7c0,6.9-4.1,11.3-12.2,13.4
		c4.2,1.6,6.9,3.3,8.1,5.1c1.2,1.9,2.1,5.5,2.5,10.8c0.5,6.4,1.6,10.6,3.2,12.6h-17.8c-1.1-2.6-1.7-5.9-1.7-9.8l-0.1-3.4l-0.1-4.2
		c0-6.5-2.6-9.8-7.9-9.8H407V602H390.6z M407,570.1h3.3c6.2,0,9.3-3.3,9.3-9.8c0-6.5-3.1-9.8-9.3-9.8H407V570.1z"/>
	<path class="st3" d="M467.4,544.4c16.5,0,24.7,9.8,24.7,29.3c0,19.5-8.4,29.3-25.2,29.3s-25.2-10-25.2-30
		C441.8,553.9,450.3,544.4,467.4,544.4z M467,548.9c-3.1,0-5.2,1.7-6.3,5.1c-1.1,3.4-1.6,10-1.6,19.7c0,9.7,0.5,16.2,1.6,19.7
		c1.1,3.4,3.2,5.1,6.3,5.1s5.2-1.7,6.3-5.1c1.1-3.4,1.6-10,1.6-19.7c0-9.7-0.5-16.2-1.6-19.6C472.2,550.6,470.1,548.9,467,548.9z"/>
	<path class="st3" d="M515.9,545.3v51h23.3v5.7h-39.7v-56.7H515.9z"/>
</g>
</svg>
