<svg version="1.1" baseProfile="basic" id="Layer_1"
	 xmlns="http://www.w3.org/2000/svg" xmlns:xlink="http://www.w3.org/1999/xlink" x="0px" y="0px" viewBox="0 0 213 58"
	 xml:space="preserve">
<style type="text/css">
	.st0{fill:#FF0000;}
	.st1{fill:#FFFF00;}
	.st2{fill:#00FF00;}
	.st3{fill:#FFFFFF;}
</style>
<path d="M196.1,58H16.9C7.6,58,0,50.4,0,41.1V16.9C0,7.6,7.6,0,16.9,0h179.2c9.3,0,16.9,7.6,16.9,16.9v24.2
	C213,50.4,205.4,58,196.1,58z"/>
<g>
	<path class="st0" d="M22.6,17v24h-7V17H22.6z"/>
	<path class="st1" d="M33.7,17v24h-7V17H33.7z"/>
	<path class="st2" d="M44.8,17v24h-7V17H44.8z"/>
	<path class="st3" d="M67.5,17l-6,7.6L70.3,41h-7.8L57,30.5l-1,1.1V41h-7V17h7v10.7L64.2,17H67.5z"/>
	<path class="st3" d="M81.9,16.6c7,0,10.5,4.1,10.5,12.4s-3.6,12.4-10.7,12.4s-10.7-4.2-10.7-12.7C71.1,20.6,74.7,16.6,81.9,16.6z
		 M81.7,18.5c-1.3,0-2.2,0.7-2.7,2.2s-0.7,4.2-0.7,8.3s0.2,6.9,0.7,8.3s1.4,2.2,2.7,2.2s2.2-0.7,2.7-2.2s0.7-4.2,0.7-8.3
		c0-4.1-0.2-6.9-0.7-8.3S83.1,18.5,81.7,18.5z"/>
	<path class="st3" d="M113,17v24h-5.3l-10-15.2V41h-2.3V17h4.4l10.9,16.4V17H113z"/>
	<path class="st3" d="M133.9,17v2.4H128V41h-7.4V19.4h-5.9V17H133.9z"/>
	<path class="st3" d="M135.7,41V17H146c2.7,0,4.8,0.6,6.4,1.7s2.4,2.6,2.4,4.5c0,2.9-1.7,4.8-5.2,5.7c1.8,0.7,2.9,1.4,3.4,2.2
		s0.9,2.3,1.1,4.6c0.2,2.7,0.7,4.5,1.4,5.3H148c-0.5-1.1-0.7-2.5-0.7-4.2l0-1.4l0-1.8c0-2.8-1.1-4.1-3.3-4.1h-1.2V41H135.7z
		 M142.6,27.5h1.4c2.6,0,4-1.4,4-4.1s-1.3-4.1-4-4.1h-1.4V27.5z"/>
	<path class="st3" d="M168.2,16.6c7,0,10.5,4.1,10.5,12.4s-3.6,12.4-10.7,12.4s-10.7-4.2-10.7-12.7C157.4,20.6,161,16.6,168.2,16.6z
		 M168,18.5c-1.3,0-2.2,0.7-2.7,2.2s-0.7,4.2-0.7,8.3s0.2,6.9,0.7,8.3s1.4,2.2,2.7,2.2s2.2-0.7,2.7-2.2s0.7-4.2,0.7-8.3
		c0-4.1-0.2-6.9-0.7-8.3S169.4,18.5,168,18.5z"/>
	<path class="st3" d="M188.8,17v21.6h9.9V41h-16.8V17H188.8z"/>
</g>
</svg>
